<svg xmlns="http://www.w3.org/2000/svg" xmlns:xlink="http://www.w3.org/1999/xlink" width="500" zoomAndPan="magnify" viewBox="0 0 375 374.999991" height="500" preserveAspectRatio="xMidYMid meet" version="1.0"><path fill="rgb(100%, 90.589905%, 6.269836%)" d="M 336.722656 246.960938 L 251.839844 35.886719 C 251.003906 33.804688 248.054688 33.804688 247.21875 35.886719 L 216.648438 111.871094 C 216.410156 112.460938 216.40625 113.132812 216.648438 113.726562 L 270.769531 248.8125 C 271.148438 249.757812 272.066406 250.378906 273.082031 250.378906 L 334.410156 250.382812 C 336.171875 250.382812 337.378906 248.601562 336.722656 246.960938 Z M 132.078125 35.886719 L 222.519531 261.230469 C 222.761719 261.828125 222.761719 262.492188 222.515625 263.089844 L 191.9375 339.09375 C 191.097656 341.179688 188.152344 341.179688 187.316406 339.09375 L 132.066406 201.71875 C 131.230469 199.632812 128.285156 199.632812 127.445312 201.714844 L 108.496094 248.804688 C 108.117188 249.746094 107.199219 250.367188 106.183594 250.367188 L 44.855469 250.359375 C 43.089844 250.359375 41.886719 248.578125 42.542969 246.9375 L 127.453125 35.886719 C 128.292969 33.804688 131.242188 33.804688 132.078125 35.886719 " fill-opacity="1" fill-rule="nonzero"/></svg>